<svg width="174" height="54" viewBox="0 0 174 54" fill="none" xmlns="http://www.w3.org/2000/svg">
<path d="M7.99384 7.01508C3.5789 7.01508 -0.000122227 10.5941 -0.00012242 15.009L-0.000123468 38.9909C-0.000123661 43.4059 3.5789 46.9849 7.99384 46.9849L23.9818 46.9849L39.9697 30.4519L39.9697 15.0091C39.9697 10.5941 36.3907 7.01508 31.9757 7.01508L7.99384 7.01508Z" fill="#2263F3"/>
<circle cx="9.81091" cy="16.8259" r="2.18017" fill="white"/>
<circle cx="30.1587" cy="16.8259" r="2.18017" fill="white"/>
<path d="M29.7955 30.4519L39.9696 30.4519L23.9817 46.9849L23.9817 36.2657C23.9817 33.0548 26.5846 30.4519 29.7955 30.4519Z" fill="url(#paint0_linear_1990_148120)"/>
<path d="M48.8975 38.5V15.6453H58.5473C58.7695 15.6453 59.0657 15.6559 59.4361 15.6771C59.817 15.6877 60.1556 15.7194 60.4518 15.7723C61.8167 15.9839 62.933 16.4336 63.8007 17.1214C64.6789 17.8091 65.3243 18.6768 65.737 19.7243C66.1496 20.7612 66.3559 21.9198 66.3559 23.2001C66.3559 24.4804 66.1443 25.6443 65.7211 26.6918C65.3084 27.7287 64.663 28.591 63.7848 29.2788C62.9172 29.9665 61.8062 30.4162 60.4518 30.6278C60.1556 30.6702 59.817 30.7019 59.4361 30.7231C59.0551 30.7442 58.7589 30.7548 58.5473 30.7548H53.2145V38.5H48.8975ZM53.2145 26.7235H58.3568C58.579 26.7235 58.8224 26.7129 59.0869 26.6918C59.3514 26.6706 59.5948 26.6283 59.817 26.5648C60.3989 26.4061 60.8486 26.1416 61.166 25.7712C61.4834 25.3903 61.7004 24.9724 61.8167 24.5174C61.9437 24.0518 62.0072 23.6127 62.0072 23.2001C62.0072 22.7874 61.9437 22.3536 61.8167 21.8986C61.7004 21.4331 61.4834 21.0151 61.166 20.6448C60.8486 20.2639 60.3989 19.9941 59.817 19.8354C59.5948 19.7719 59.3514 19.7296 59.0869 19.7084C58.8224 19.6872 58.579 19.6767 58.3568 19.6767H53.2145V26.7235ZM68.4172 38.5V15.1692H72.7342V38.5H68.4172ZM80.8109 38.9761C79.5835 38.9761 78.5413 38.7434 77.6842 38.2778C76.8378 37.8017 76.1923 37.1721 75.7479 36.3891C75.3141 35.5956 75.0972 34.7226 75.0972 33.7704C75.0972 32.9768 75.2189 32.252 75.4622 31.596C75.7056 30.94 76.0971 30.3633 76.6367 29.866C77.1869 29.3581 77.9223 28.9349 78.8428 28.5963C79.4777 28.3635 80.2342 28.1572 81.1124 27.9773C81.9906 27.7975 82.9852 27.6282 84.0962 27.4695C85.2072 27.3002 86.4293 27.115 87.7625 26.914L86.2071 27.771C86.2071 26.7552 85.9637 26.0093 85.477 25.5332C84.9903 25.057 84.1756 24.819 83.0328 24.819C82.398 24.819 81.7367 24.9724 81.0489 25.2792C80.3612 25.5861 79.8797 26.131 79.6046 26.914L75.7003 25.676C76.1341 24.2582 76.9489 23.1049 78.1445 22.2161C79.3401 21.3273 80.9696 20.8829 83.0328 20.8829C84.5459 20.8829 85.8897 21.1157 87.0642 21.5812C88.2386 22.0468 89.1274 22.8509 89.7305 23.9936C90.0691 24.6285 90.2702 25.2633 90.3336 25.8982C90.3971 26.533 90.4289 27.242 90.4289 28.025V38.5H86.6515V34.9766L87.1911 35.7067C86.3552 36.86 85.4506 37.6959 84.4771 38.2143C83.5143 38.7222 82.2922 38.9761 80.8109 38.9761ZM81.7314 35.5797C82.525 35.5797 83.1916 35.4421 83.7312 35.167C84.2814 34.8813 84.7152 34.5586 85.0326 34.1989C85.3606 33.8391 85.5828 33.5376 85.6992 33.2942C85.9214 32.8287 86.0484 32.289 86.0801 31.6753C86.1225 31.0511 86.1436 30.5326 86.1436 30.12L87.4133 30.4374C86.133 30.649 85.0961 30.8289 84.3025 30.977C83.509 31.1146 82.8688 31.2415 82.3821 31.3579C81.8954 31.4743 81.4669 31.6013 81.0965 31.7388C80.6733 31.9081 80.3294 32.0933 80.0649 32.2943C79.811 32.4848 79.6205 32.6964 79.4935 32.9292C79.3772 33.162 79.319 33.4212 79.319 33.7069C79.319 34.0984 79.4142 34.437 79.6046 34.7226C79.8057 34.9977 80.0861 35.2094 80.4458 35.3575C80.8056 35.5056 81.2341 35.5797 81.7314 35.5797ZM104.794 38.5V30.4056C104.794 30.0142 104.773 29.5169 104.731 28.9137C104.688 28.3001 104.556 27.6864 104.334 27.0727C104.112 26.459 103.747 25.9458 103.239 25.5332C102.741 25.1205 102.032 24.9142 101.112 24.9142C100.742 24.9142 100.345 24.9724 99.9216 25.0888C99.4984 25.2052 99.1016 25.4326 98.7312 25.7712C98.3609 26.0992 98.0541 26.586 97.8107 27.2314C97.5779 27.8768 97.4615 28.7339 97.4615 29.8025L94.9856 28.6281C94.9856 27.2737 95.2607 26.004 95.8109 24.819C96.3611 23.6339 97.1864 22.6763 98.2868 21.9462C99.3978 21.2162 100.795 20.8511 102.477 20.8511C103.821 20.8511 104.916 21.0786 105.762 21.5336C106.609 21.9886 107.265 22.5652 107.73 23.2636C108.206 23.9619 108.545 24.692 108.746 25.4538C108.947 26.205 109.069 26.8928 109.111 27.5171C109.153 28.1413 109.175 28.5963 109.175 28.882V38.5H104.794ZM93.0811 38.5V21.359H96.9219V27.0409H97.4615V38.5H93.0811ZM112.167 18.9783V15.1692H116.484V18.9783H112.167ZM112.167 38.5V21.359H116.484V38.5H112.167ZM128.212 38.9761C126.508 38.9761 125.085 38.5794 123.942 37.7858C122.799 36.9922 121.937 35.913 121.355 34.548C120.784 33.1831 120.498 31.6436 120.498 29.9295C120.498 28.2154 120.784 26.6759 121.355 25.311C121.927 23.946 122.768 22.8668 123.879 22.0732C124.99 21.2797 126.36 20.8829 127.989 20.8829C129.629 20.8829 131.058 21.2744 132.275 22.0573C133.491 22.8403 134.433 23.9143 135.1 25.2792C135.777 26.6336 136.115 28.1837 136.115 29.9295C136.115 31.6436 135.782 33.1831 135.116 34.548C134.46 35.913 133.539 36.9922 132.354 37.7858C131.169 38.5794 129.788 38.9761 128.212 38.9761ZM119.768 46.1182V21.359H123.577V33.1038H124.117V46.1182H119.768ZM127.513 35.1353C128.444 35.1353 129.206 34.9025 129.799 34.437C130.391 33.9714 130.83 33.3471 131.116 32.5641C131.402 31.7706 131.545 30.8924 131.545 29.9295C131.545 28.9772 131.396 28.1096 131.1 27.3266C130.804 26.533 130.344 25.9035 129.719 25.4379C129.106 24.9618 128.317 24.7237 127.355 24.7237C126.455 24.7237 125.725 24.9406 125.164 25.3744C124.614 25.8083 124.212 26.4167 123.958 27.1996C123.704 27.9826 123.577 28.8926 123.577 29.9295C123.577 30.9664 123.704 31.8764 123.958 32.6594C124.212 33.4423 124.625 34.0507 125.196 34.4846C125.778 34.9184 126.55 35.1353 127.513 35.1353ZM149.846 38.5V30.4056C149.846 30.0142 149.825 29.5169 149.783 28.9137C149.741 28.3001 149.608 27.6864 149.386 27.0727C149.164 26.459 148.799 25.9458 148.291 25.5332C147.794 25.1205 147.085 24.9142 146.164 24.9142C145.794 24.9142 145.397 24.9724 144.974 25.0888C144.551 25.2052 144.154 25.4326 143.783 25.7712C143.413 26.0992 143.106 26.586 142.863 27.2314C142.63 27.8768 142.514 28.7339 142.514 29.8025L140.038 28.6281C140.038 27.2737 140.313 26.004 140.863 24.819C141.413 23.6339 142.239 22.6763 143.339 21.9462C144.45 21.2162 145.847 20.8511 147.529 20.8511C148.873 20.8511 149.968 21.0786 150.814 21.5336C151.661 21.9886 152.317 22.5652 152.783 23.2636C153.259 23.9619 153.597 24.692 153.798 25.4538C153.999 26.205 154.121 26.8928 154.163 27.5171C154.206 28.1413 154.227 28.5963 154.227 28.882V38.5H149.846ZM138.133 38.5V15.6453H141.974V27.3901H142.514V38.5H138.133ZM159.093 46.1182L162.394 37.0398L162.457 39.7062L154.998 21.359H159.473L164.489 34.3417H163.473L168.457 21.359H172.774L163.092 46.1182H159.093Z" fill="#24235F"/>
<defs>
<linearGradient id="paint0_linear_1990_148120" x1="36.8039" y1="26.6627" x2="30.075" y2="31.8835" gradientUnits="userSpaceOnUse">
<stop stop-color="#FB7800"/>
<stop offset="1" stop-color="#FFA500"/>
</linearGradient>
</defs>
</svg>
